G04*
G04 #@! TF.GenerationSoftware,Altium Limited,Altium Designer,19.1.8 (144)*
G04*
G04 Layer_Physical_Order=2*
G04 Layer_Color=16711680*
%FSLAX44Y44*%
%MOMM*%
G71*
G01*
G75*
%ADD12C,0.2540*%
%ADD22R,1.9800X1.9800*%
%ADD23C,1.9800*%
%ADD24R,1.2000X1.2000*%
%ADD25C,1.2000*%
%ADD26C,1.8000*%
%ADD27R,1.1500X1.1500*%
%ADD28C,1.1500*%
%ADD29R,1.1000X1.1000*%
%ADD30C,1.1000*%
D12*
X367450Y-76520D02*
X419100D01*
X350520Y-59590D02*
X367450Y-76520D01*
X361950Y-96520D02*
X419100D01*
X350520Y-85090D02*
X361950Y-96520D01*
X513080Y-76200D02*
X576580D01*
X491490Y-97790D02*
X513080Y-76200D01*
X137922Y-78740D02*
X199390D01*
X134112Y-74930D02*
X137922Y-78740D01*
X68580Y-74930D02*
X134112D01*
X284480Y-85090D02*
X350520D01*
X273050Y-73660D02*
X284480Y-85090D01*
X204470Y-73660D02*
X273050D01*
X199390Y-78740D02*
X204470Y-73660D01*
X284980Y-110590D02*
X350520D01*
X273050Y-98660D02*
X284980Y-110590D01*
X576580Y-101600D02*
X589534Y-88646D01*
Y-66040D01*
X584200Y-60706D02*
X589534Y-66040D01*
X503574Y-60706D02*
X584200D01*
X491490Y-72790D02*
X503574Y-60706D01*
X180410Y-98740D02*
X199390D01*
X135890Y-143260D02*
X180410Y-98740D01*
X457120Y-72790D02*
X491490D01*
X453390Y-76520D02*
X457120Y-72790D01*
X419100Y-76520D02*
X453390D01*
X455930Y-97790D02*
X491490D01*
X454660Y-96520D02*
X455930Y-97790D01*
X419100Y-96520D02*
X454660D01*
X236046Y-98660D02*
X273050D01*
X235966Y-98740D02*
X236046Y-98660D01*
X199390Y-98740D02*
X235966D01*
D22*
X350520Y-110590D02*
D03*
D23*
Y-85090D02*
D03*
Y-59590D02*
D03*
D24*
X135890Y-143260D02*
D03*
D25*
Y-48260D02*
D03*
X491490Y-72790D02*
D03*
Y-97790D02*
D03*
X273050Y-98660D02*
D03*
Y-73660D02*
D03*
D26*
X576580Y-101600D02*
D03*
Y-76200D02*
D03*
X68580Y-74930D02*
D03*
Y-100330D02*
D03*
D27*
X419100Y-76520D02*
D03*
D28*
Y-96520D02*
D03*
D29*
X199390Y-98740D02*
D03*
D30*
Y-78740D02*
D03*
M02*
