G04*
G04 #@! TF.GenerationSoftware,Altium Limited,Altium Designer,19.1.8 (144)*
G04*
G04 Layer_Physical_Order=1*
G04 Layer_Color=255*
%FSLAX44Y44*%
%MOMM*%
G71*
G01*
G75*
%ADD12C,0.2540*%
%ADD22R,1.9800X1.9800*%
%ADD23C,1.9800*%
%ADD24R,1.2000X1.2000*%
%ADD25C,1.2000*%
%ADD26C,1.8000*%
%ADD27R,1.1500X1.1500*%
%ADD28C,1.1500*%
%ADD29R,1.1000X1.1000*%
%ADD30C,1.1000*%
D12*
X68580Y-100330D02*
X83820D01*
X135890Y-48260D01*
X16513Y-124460D02*
X23284D01*
X26670Y-121074D01*
X23284Y-117689D01*
X16513D01*
X18206Y-107532D02*
X16513Y-109225D01*
Y-112611D01*
X18206Y-114303D01*
X24977D01*
X26670Y-112611D01*
Y-109225D01*
X24977Y-107532D01*
X18206Y-97375D02*
X16513Y-99068D01*
Y-102454D01*
X18206Y-104147D01*
X24977D01*
X26670Y-102454D01*
Y-99068D01*
X24977Y-97375D01*
X19476Y-73239D02*
X17783Y-74932D01*
Y-78317D01*
X19476Y-80010D01*
X26247D01*
X27940Y-78317D01*
Y-74932D01*
X26247Y-73239D01*
X22862D01*
Y-76624D01*
X27940Y-69853D02*
X17783D01*
X27940Y-63082D01*
X17783D01*
Y-59697D02*
X27940D01*
Y-54618D01*
X26247Y-52925D01*
X19476D01*
X17783Y-54618D01*
Y-59697D01*
X616376Y-77049D02*
X614683Y-78742D01*
Y-82127D01*
X616376Y-83820D01*
X623147D01*
X624840Y-82127D01*
Y-78742D01*
X623147Y-77049D01*
X619762D01*
Y-80434D01*
X624840Y-73663D02*
X614683D01*
X624840Y-66892D01*
X614683D01*
Y-63507D02*
X624840D01*
Y-58428D01*
X623147Y-56735D01*
X616376D01*
X614683Y-58428D01*
Y-63507D01*
Y-108799D02*
Y-115570D01*
X619762D01*
X618069Y-112184D01*
Y-110492D01*
X619762Y-108799D01*
X623147D01*
X624840Y-110492D01*
Y-113877D01*
X623147Y-115570D01*
X614683Y-105413D02*
X621454D01*
X624840Y-102028D01*
X621454Y-98642D01*
X614683D01*
D22*
X350520Y-110590D02*
D03*
D23*
Y-85090D02*
D03*
Y-59590D02*
D03*
D24*
X135890Y-143260D02*
D03*
D25*
Y-48260D02*
D03*
X491490Y-72790D02*
D03*
Y-97790D02*
D03*
X273050Y-98660D02*
D03*
Y-73660D02*
D03*
D26*
X576580Y-101600D02*
D03*
Y-76200D02*
D03*
X68580Y-74930D02*
D03*
Y-100330D02*
D03*
D27*
X419100Y-76520D02*
D03*
D28*
Y-96520D02*
D03*
D29*
X199390Y-98740D02*
D03*
D30*
Y-78740D02*
D03*
M02*
